<?xml version="1.0" standalone="no"?>
<!DOCTYPE svg PUBLIC "-//W3C//DTD SVG 20010904//EN"
 "http://www.w3.org/TR/2001/REC-SVG-20010904/DTD/svg10.dtd">
<svg version="1.0" xmlns="http://www.w3.org/2000/svg"
 width="1167.000000pt" height="1080.000000pt" viewBox="0 0 1167.000000 1080.000000"
 preserveAspectRatio="xMidYMid meet">

<g transform="translate(0.000000,1080.000000) scale(0.100000,-0.100000)"
fill="#000000" stroke="none">
<path d="M0 5400 l0 -5400 5835 0 5835 0 0 5400 0 5400 -5835 0 -5835 0 0
-5400z m5840 730 c0 -1291 -1 -1351 -18 -1368 -19 -19 -298 -182 -312 -182 -4
0 -18 -8 -31 -19 -13 -10 -49 -32 -79 -48 -30 -17 -71 -40 -90 -52 -19 -11
-46 -26 -60 -32 -14 -6 -32 -16 -40 -23 -8 -7 -41 -27 -72 -45 -32 -17 -84
-45 -115 -62 -32 -18 -65 -38 -74 -45 -8 -8 -19 -14 -23 -14 -5 0 -50 -25
-101 -55 -52 -30 -97 -55 -101 -55 -4 0 -15 -6 -23 -14 -9 -7 -43 -28 -75 -45
-33 -17 -64 -35 -70 -40 -6 -5 -38 -23 -71 -41 -33 -17 -73 -40 -90 -50 -16
-11 -48 -29 -70 -40 -22 -11 -53 -29 -70 -40 -16 -11 -43 -26 -60 -35 -16 -8
-46 -24 -65 -36 -19 -11 -78 -45 -130 -75 -52 -30 -102 -59 -110 -64 -109 -67
-408 -230 -422 -230 -21 0 -24 28 -3 36 8 3 17 16 21 27 3 12 12 29 19 37 8 8
28 43 47 77 18 34 110 192 203 352 94 160 175 299 180 308 83 146 101 177 110
191 6 10 29 51 53 92 48 85 55 95 98 165 17 28 37 62 45 77 8 15 50 89 94 164
44 76 87 150 95 165 8 15 48 83 88 151 40 68 77 130 81 138 5 8 27 44 48 80
22 36 42 73 45 82 4 9 19 36 34 60 15 24 41 68 57 98 16 30 44 78 63 105 18
28 44 73 59 100 14 28 35 64 45 80 11 17 27 44 36 60 8 17 25 46 37 66 12 21
53 90 90 155 37 66 72 126 77 134 29 47 160 272 190 326 19 35 41 69 48 76 6
6 12 16 12 20 0 8 52 99 118 206 12 20 29 51 37 67 8 17 24 44 35 60 10 17 26
44 35 60 8 17 26 48 40 70 13 22 29 49 35 60 41 75 59 100 69 98 6 -2 11 2 11
7 0 6 5 10 10 10 7 0 10 -457 10 -1350z m146 1336 c0 0 34 -59 75 -130 41 -70
84 -145 96 -165 32 -54 46 -80 82 -146 18 -33 39 -67 46 -75 8 -8 18 -26 24
-40 6 -14 20 -38 31 -55 21 -33 50 -83 75 -130 9 -16 25 -43 35 -60 11 -16 27
-43 36 -60 8 -16 26 -48 40 -70 13 -22 30 -51 37 -65 7 -14 24 -43 38 -65 14
-22 32 -52 40 -67 14 -27 180 -317 199 -348 5 -8 35 -58 65 -110 31 -52 60
-102 65 -110 5 -8 22 -37 37 -63 15 -27 38 -65 50 -85 12 -21 29 -50 37 -67 9
-16 25 -43 36 -60 11 -16 27 -43 36 -60 8 -16 26 -48 39 -70 14 -22 30 -51 37
-65 7 -14 28 -47 46 -75 17 -27 32 -54 32 -59 0 -5 6 -17 14 -25 8 -9 27 -40
42 -69 16 -29 38 -68 49 -86 11 -19 35 -60 53 -93 18 -32 37 -65 42 -73 15
-23 80 -133 90 -152 6 -10 14 -26 20 -35 10 -19 69 -119 107 -181 12 -21 27
-47 32 -59 6 -12 23 -41 38 -65 15 -24 33 -54 40 -68 7 -14 22 -38 33 -55 11
-16 27 -43 35 -60 9 -16 25 -43 35 -60 11 -16 28 -47 37 -67 9 -21 19 -38 24
-38 4 0 22 -28 39 -62 43 -83 60 -114 93 -166 16 -24 31 -51 35 -60 17 -40
135 -232 143 -232 10 0 12 -33 3 -43 -7 -7 -91 34 -151 75 -23 15 -44 28 -47
28 -5 0 -145 79 -196 110 -49 30 -211 120 -217 120 -3 0 -14 6 -22 14 -9 8
-41 27 -71 44 -30 16 -71 39 -90 51 -19 11 -46 26 -60 33 -14 6 -32 17 -40 24
-8 7 -42 26 -75 44 -33 17 -78 42 -100 55 -22 13 -51 29 -65 35 -14 6 -32 17
-40 24 -8 8 -51 33 -95 56 -44 23 -87 49 -96 56 -8 8 -19 14 -23 14 -3 0 -65
34 -136 75 -71 41 -134 75 -139 75 -4 0 -13 6 -19 13 -6 6 -39 27 -74 45 -35
19 -81 45 -103 58 -22 13 -47 27 -55 31 -8 3 -21 11 -29 17 -14 12 -125 75
-176 101 -16 8 -52 28 -80 45 -27 16 -68 39 -90 51 -22 12 -52 33 -68 47 l-27
26 0 1349 0 1348 23 -7 c12 -3 22 -7 23 -8z m43 -2866 c58 -33 113 -65 121
-70 8 -6 26 -15 40 -22 14 -7 32 -17 40 -23 8 -7 35 -23 60 -36 25 -12 68 -38
96 -56 29 -18 63 -38 75 -43 13 -6 42 -22 64 -35 22 -13 54 -31 70 -40 17 -8
48 -26 70 -40 22 -14 49 -30 60 -35 11 -6 38 -21 60 -35 22 -13 47 -27 55 -31
8 -4 104 -58 212 -121 109 -62 202 -113 207 -113 5 0 13 -6 19 -13 6 -6 39
-27 74 -45 35 -19 77 -42 93 -53 17 -10 41 -24 55 -31 14 -6 32 -17 40 -24 8
-7 42 -26 75 -44 88 -46 170 -93 187 -107 7 -6 25 -17 38 -22 14 -6 32 -15 40
-21 8 -5 92 -53 185 -106 188 -106 197 -112 189 -125 -3 -5 -1004 -9 -2365 -9
-2210 0 -2360 1 -2357 17 2 9 37 35 79 57 41 23 86 49 99 59 14 9 30 17 36 17
6 0 22 8 35 19 13 10 56 36 94 56 39 21 77 43 85 50 8 7 31 20 50 29 19 9 49
25 65 36 17 10 45 26 63 34 19 9 53 29 77 45 24 16 54 32 67 36 12 4 25 10 28
14 11 14 67 49 90 56 13 4 45 23 72 41 26 19 53 34 59 34 6 0 38 18 71 40 33
22 64 40 68 40 5 0 32 16 61 35 30 19 59 35 65 35 6 0 22 8 35 19 13 10 56 36
94 56 39 21 81 45 95 54 14 9 36 22 50 29 14 7 39 21 55 32 17 11 46 27 65 36
19 9 54 29 78 45 24 16 45 29 48 29 2 0 63 34 134 75 71 41 132 75 135 75 2 0
29 16 60 35 30 20 63 39 73 42 9 4 44 24 76 45 83 53 105 51 235 -22z"/>
</g>
</svg>
